<?xml version="1.0" standalone="no"?>
<!DOCTYPE svg PUBLIC "-//W3C//DTD SVG 20010904//EN"
 "http://www.w3.org/TR/2001/REC-SVG-20010904/DTD/svg10.dtd">
<svg version="1.0" xmlns="http://www.w3.org/2000/svg"
 width="1264.000000pt" height="1264.000000pt" viewBox="0 0 1264.000000 1264.000000"
 preserveAspectRatio="xMidYMid meet">
<metadata>
Created by potrace 1.14, written by Peter Selinger 2001-2017
</metadata>
<g transform="translate(0.000000,1264.000000) scale(0.100000,-0.100000)"
fill="#000000" stroke="none">
<path d="M6465 12124 c-930 -74 -1676 -416 -2280 -1046 -251 -261 -454 -549
-659 -938 -48 -91 -112 -202 -142 -248 -69 -103 -198 -239 -274 -291 -97 -64
-196 -97 -843 -276 -575 -159 -965 -335 -1304 -589 -404 -303 -695 -733 -842
-1247 -205 -715 -117 -1558 264 -2519 182 -458 444 -987 688 -1385 574 -939
1380 -1729 2310 -2266 1364 -786 3123 -1027 4416 -604 749 245 1310 672 1665
1266 185 308 300 601 476 1204 144 496 215 674 316 801 26 32 142 140 257 239
709 606 967 852 1249 1190 743 892 1013 1837 806 2825 -120 571 -412 1118
-837 1562 -372 389 -1057 917 -1659 1277 -964 577 -1920 922 -2852 1027 -128
15 -642 27 -755 18z m530 -460 c1087 -104 2356 -653 3475 -1502 299 -227 568
-459 745 -644 425 -441 680 -963 757 -1548 16 -125 16 -479 -1 -600 -59 -429
-206 -809 -460 -1192 -302 -455 -593 -756 -1366 -1419 -327 -281 -393 -344
-466 -449 -131 -187 -203 -366 -355 -885 -47 -159 -105 -353 -131 -430 -181
-552 -413 -934 -738 -1214 -422 -364 -978 -590 -1665 -677 -170 -21 -680 -30
-880 -15 -998 74 -1937 396 -2754 943 -342 229 -625 467 -936 784 -522 533
-918 1119 -1289 1909 -293 623 -458 1137 -528 1645 -24 178 -24 571 0 735 90
601 375 1061 847 1371 289 189 568 298 1236 484 199 55 408 116 465 136 200
69 328 145 472 283 152 145 252 286 407 575 212 394 360 603 605 855 647 665
1517 955 2560 855z"/>
<path d="M6590 11233 c-484 -34 -831 -136 -1191 -350 -141 -84 -290 -203 -434
-347 -215 -216 -345 -396 -525 -731 -190 -352 -298 -504 -494 -700 -280 -279
-486 -383 -1079 -546 -593 -163 -781 -226 -992 -331 -441 -221 -674 -506 -790
-965 -66 -264 -62 -639 11 -1008 91 -455 332 -1069 655 -1668 426 -787 943
-1400 1604 -1897 760 -572 1631 -907 2625 -1012 192 -20 709 -17 890 5 450 56
827 179 1140 373 296 183 495 404 658 729 104 208 154 349 302 853 55 188 121
399 146 468 114 315 248 552 418 740 37 40 187 176 334 301 515 438 742 647
951 873 433 470 676 904 762 1363 30 158 37 449 15 614 -73 552 -345 1017
-858 1466 -958 836 -2130 1458 -3168 1681 -339 72 -724 107 -980 89z m-203
-2022 c26 -12 48 -32 59 -52 9 -18 138 -407 286 -863 148 -457 276 -841 284
-854 8 -13 29 -32 47 -42 31 -19 58 -20 932 -20 837 0 902 -1 935 -18 73 -36
102 -131 61 -199 -13 -20 -271 -214 -744 -558 -753 -546 -757 -550 -757 -618
0 -14 122 -400 271 -859 150 -458 274 -853 276 -878 11 -103 -109 -183 -201
-135 -38 20 -1366 986 -1366 994 0 3 101 134 225 290 124 157 225 286 225 288
0 2 -323 -238 -1445 -1077 -709 -529 -667 -500 -719 -500 -46 0 -97 27 -121
63 -39 60 -42 49 245 932 149 461 274 852 277 870 6 38 -13 79 -54 116 -15 14
-334 248 -708 519 -374 271 -697 510 -719 532 -37 39 -38 41 -34 99 3 45 10
65 29 85 51 56 12 54 1018 54 l930 0 115 353 c63 193 193 593 288 886 154 475
177 539 205 567 46 47 95 54 160 25z"/>
</g>
</svg>
